<svg xmlns="http://www.w3.org/2000/svg" viewBox="0 0 900 650" role="img" aria-labelledby="title desc">
  <title id="title">Honey supply</title>
  <desc id="desc">Honey jars, dipper, and honeycomb pattern.</desc>
  <rect width="900" height="650" fill="#fff8df"/>
  <g opacity=".28" fill="#d6a037">
    <path d="M83 98h68l34 59-34 59H83l-34-59Z"/>
    <path d="M210 98h68l34 59-34 59h-68l-34-59Z"/>
    <path d="M337 98h68l34 59-34 59h-68l-34-59Z"/>
    <path d="M655 112h68l34 59-34 59h-68l-34-59Z"/>
    <path d="M782 112h68l34 59-34 59h-68l-34-59Z"/>
  </g>
  <rect x="250" y="188" width="180" height="326" rx="52" fill="#f6b733" stroke="#8b5a24" stroke-width="15"/>
  <rect x="278" y="154" width="124" height="50" rx="15" fill="#8b5a24"/>
  <rect x="278" y="306" width="124" height="104" rx="18" fill="#fff2b8" opacity=".78"/>
  <rect x="485" y="158" width="190" height="356" rx="56" fill="#e99e27" stroke="#8b5a24" stroke-width="15"/>
  <rect x="515" y="122" width="130" height="54" rx="15" fill="#8b5a24"/>
  <rect x="520" y="294" width="120" height="112" rx="18" fill="#fff2b8" opacity=".78"/>
  <path d="M137 504c90 31 583 37 656-5 15 41-41 72-173 88-180 22-416 10-483-28-31-18-31-42 0-55Z" fill="#17211b" opacity=".12"/>
  <g transform="rotate(-25 580 210)">
    <rect x="577" y="52" width="28" height="265" rx="14" fill="#7b4f2f"/>
    <rect x="532" y="55" width="118" height="78" rx="20" fill="#b97939"/>
    <path d="M532 77h118M532 103h118" stroke="#5b371f" stroke-width="10"/>
    <path d="M594 132c30 46-10 62 22 100" stroke="#d28b24" stroke-width="24" stroke-linecap="round"/>
  </g>
</svg>
